<?xml version="1.0" encoding="UTF-8"?>
<svg id="_レイヤー_2" data-name="レイヤー 2" xmlns="http://www.w3.org/2000/svg" viewBox="0 0 283.07 74.96">
  <defs>
    <style>
      .cls-1 {
        fill: none;
        stroke: #595757;
        stroke-miterlimit: 10;
      }

      .cls-2 {
        fill: #005bac;
      }

      .cls-2, .cls-3, .cls-4, .cls-5, .cls-6, .cls-7, .cls-8 {
        fill-rule: evenodd;
      }

      .cls-2, .cls-3, .cls-4, .cls-5, .cls-6, .cls-7, .cls-8, .cls-9, .cls-10 {
        stroke-width: 0px;
      }

      .cls-3 {
        fill: #0e0c0c;
      }

      .cls-4 {
        fill: #94bd71;
      }

      .cls-5 {
        fill: #89b13a;
      }

      .cls-6 {
        fill: #e5ba1e;
      }

      .cls-7 {
        fill: #ec6d74;
      }

      .cls-8 {
        fill: #f4a862;
      }

      .cls-9 {
        fill: #595757;
      }

      .cls-10 {
        fill: #231815;
      }
    </style>
  </defs>
  <g id="_レイヤー_1-2" data-name="レイヤー 1">
    <g>
      <g>
        <path class="cls-10" d="m90.88,4.4c.03.41.06.65.06,1.73,0,.93-.02,2-.06,2.93h-1.75c-.02-.39-.08-1.1-.08-2.37s.07-1.9.1-2.29h1.74Zm11.75,8.31c-.87.11-2.16.16-3.16.21-.77.03-1.55.08-2.32.12.03,2.47.02,2.95-.06,3.88-.33,0-2.95-.07-4.29-.26l.1-1.72c.44-.03,1.57-.05,2.13.02-.02-.7-.02-1.05-.03-1.82-1.51.05-3.35.12-4.52.15-.38.02-.64.02-.98.02l-.03-1.69c1.49-.21,2.19-.23,5.53-.38,0-.34.02-.47.05-.79.11-.15.83-1.1,1.14-1.44-.69.03-2.67.11-4.04.11l.02-1.59c1.5-.16,6.07-.46,7.92-.39-.93,1.52-2.52,3.17-2.96,3.63v.38c2.44-.05,2.75-.05,5.5-.05l.02,1.6Zm-8.81-9.53c0,.49-.38,1.11-1.18,1.11-.88,0-1.32-.74-1.32-1.34,0-.56.41-1.01,1.13-1.01.87,0,1.37.69,1.37,1.24Zm7.01,5.45c-.07-.8-.07-2-.05-2.45-3.3.2-7.76.36-9.35.36v-1.67c3.28-.21,4.35-.28,7.27-.38l-.9-.69c.67-1.05,1.21-1.65,2.11-2.57l1.31,1.01c-.62.97-1.39,1.83-1.77,2.21.41,0,2.19-.05,2.55-.05.23-.02.41-.02.69-.02.02.57.05,1.18.05,1.96,0,1.03-.05,1.75-.08,2.26l-1.83.02Zm-3.88-5.5c0,.44-.36,1.11-1.16,1.11-.98,0-1.29-1.05-1.29-1.41,0-.54.44-1.06,1.06-1.06.95,0,1.39.9,1.39,1.36Z"/>
        <path class="cls-10" d="m109.64,1.3c0,.66.05,3.57.05,4.17.49-.02.56-.02,1.62-.02v-1.57c3.21-.29,4.47-.34,9.61-.41v1.65c-.08,0-2.69.21-7.27.34-.34.02-1.83.03-2.14.05v1.6c-.56.05-.82.06-1.8.13v2.29c.1-.47.38-.77.87-.77.75,0,1.06.79,1.06,1.1,0,.39-.38.96-.97.96-.46,0-.87-.34-.96-.9-.02,2.59-.02,2.96-.08,6.27h-1.77c-.02-.69-.08-4.17-.08-4.6-.29.34-1.16,1.24-1.56,1.64l-1.05-1.24c.71-.95,1.36-1.78,2.59-3.06,0-.26.02-1.41.02-1.64-.33,0-1.8.03-2.09.03v-1.69c.62-.05.77-.06,2.12-.15.02-1.39.03-1.78.1-4.21h1.73Zm9.26,7.94c-.62.77-1.26,1.49-1.91,2.21,2.78,2.21,3.01,2.39,4.11,3.34l-.98,1.33c-1.82-1.16-3.37-2.42-4.42-3.27-1.59,1.59-3.16,2.8-4.11,3.42l-1.05-1.21c2.26-2.14,2.52-2.37,3.65-3.49-.82-.72-1-.88-1.37-1.28l1.15-1.18c.24.18,1.31,1,1.54,1.16.69-.67,1.47-1.47,2.21-2.23l1.2,1.2Zm-4.14-2.08c-.87,1.11-1.65,1.93-2.5,2.68l-1.13-1.11c.9-1.13,1.47-1.7,2.5-2.65l1.13,1.08Zm2.42-5.02c0,.87-.69,1.21-1.21,1.21-.84,0-1.31-.77-1.31-1.36s.47-1.13,1.2-1.13,1.33.52,1.33,1.28Zm2.77,7.77c-.52-.57-1.59-1.77-2.37-3.13l1.29-.87c1.23,1.32,1.83,2.26,2.32,3.11l-1.24.88Z"/>
        <path class="cls-10" d="m138.31,10.72c-4.19.29-4.44.3-7.05.4l1.37.63c-.59,1.32-.84,1.84-1.21,2.56.68-.13,2.7-.4,3.53-.51l.3,1.65c-3.26.7-4.92,1-7.46,1.24l-.21-1.65c.27-.06.4-.08,1.6-.32.57-1.35.83-1.86,1.79-3.6-.89.03-1.21.05-3.02.09-.98,2.22-2.35,4.38-3.2,5.43l-1.35-.84c.73-1.56,1.65-3.3,3.17-5.43l1.24.68.02-1.46c1.62-.13,2.57-.21,3.87-.29-.02-1.19-.02-1.35-.04-2.79-2.47.1-2.65.1-3.33.1v-1.75c1.12-.06,2.24-.14,3.35-.21.03-1.62.03-1.79.08-2.94l1.84-.02c.02.54.08,2.46.08,2.86,1.63-.05,1.81-.05,3.41-.05v1.7c-2.02.13-2.24.14-3.4.22-.01,1.59-.01,1.78-.03,2.78,2.46-.08,2.75-.09,4.62-.09l.02,1.6Zm-11.97-2.29c0,.6-.49,1.22-1.24,1.22s-1.45-.6-1.45-1.38c0-.68.57-1.17,1.25-1.17.54,0,1.43.45,1.43,1.33Zm1.03-4.35c0,.51-.46,1.19-1.29,1.19s-1.38-.68-1.38-1.4c0-.84.73-1.21,1.24-1.21.84,0,1.43.82,1.43,1.41Zm9.46,12.75c-.84-1.27-1.43-2.67-1.98-4.1l1.51-.67c1,1.76,1.21,2.21,1.99,4.08l-1.51.68Z"/>
        <path class="cls-10" d="m149.16,2.12c-1.28,3.44-5.96,11.69-7.76,13.91l-1.57-.87c.62-1.21,1.37-2.57,2.01-3.7,1.2-2.11,2.54-4.58,3.81-6.87.57-1.05,1.18-2.14,1.85-3.27l1.65.8Zm3.88,13.75c-1.78-1.42-4.47-4.04-6.73-6.73l1.26-1.21c.83.67,4.26,3.78,6.68,6.71l-1.21,1.23Z"/>
        <path class="cls-10" d="m161.03,8.69c0,.93-.75,1.72-1.7,1.72s-1.7-.77-1.7-1.72.79-1.73,1.7-1.73,1.7.77,1.7,1.73Z"/>
        <path class="cls-10" d="m178.2,9.83c-2.32.23-6.25.41-7.77.46-.02,1-.03,2.57-.06,3.57,2.73-.21,6.02-.23,6.78-.2v1.82c-1.18.11-5.42.33-8.84.26-.06-1.15-.06-1.57-.06-5.35-.56.02-3.01.08-3.52.08v-1.78c.55-.07,3.04-.21,3.53-.25.04-1.31.1-2.54.12-3.18l1.98-.08c.02.28.02.43.02.66.02.75.02,1.05.05,2.49,3.16-.16,6.27-.25,7.79-.23v1.74Zm-2.21-5.58c-2.49.25-7.27.47-10.35.47v-1.77c1.47-.18,5.42-.34,6.17-.38,1.39-.03,2.78-.05,4.18-.05v1.72Z"/>
        <path class="cls-10" d="m193.97,9.26c-1.26.1-6.01.26-7.19.29-1.8.03-3.59.05-5.38.03v-1.8c.77-.08,6.68-.39,12.57-.36v1.83Z"/>
        <path class="cls-10" d="m200.6,2.12c.13,1.29.15,5.6.15,7.04,0,2.34-.05,5.25-.18,7.58h-2.08c-.03-.83-.08-2.57-.08-4.94,0-.87.06-8.07.2-9.67h2Zm8.36,9.67c-1.34-.23-5.11-1.19-7.95-2.18l.57-1.8c2.68.57,5.35,1.24,7.9,2.26l-.52,1.72Zm-2.62-7.71c0,.52-.36,1.1-.96,1.1s-1.06-.65-1.06-1.11c0-.43.41-1.03.97-1.03.61,0,1.06.46,1.06,1.05Zm1.59,1.88c0,.66-.54,1.05-1.02,1.05s-.91-.47-.91-1.01c0-.65.55-1.05.91-1.05.43,0,1.02.36,1.02,1.01Z"/>
        <path class="cls-10" d="m213.56,3.16c.03.41.07.65.07,1.74,0,.93-.02,2-.07,2.93h-1.75c-.02-.39-.08-1.1-.08-2.37s.06-1.9.1-2.29h1.73Zm11.75,8.31c-.87.11-2.16.16-3.16.21-.77.03-1.55.08-2.32.12.04,2.47.02,2.95-.06,3.88-.33,0-2.95-.07-4.29-.26l.1-1.72c.44-.03,1.57-.05,2.13.02-.02-.7-.02-1.05-.03-1.82-1.51.05-3.36.12-4.52.15-.38.02-.64.02-.98.02l-.03-1.69c1.49-.21,2.19-.23,5.53-.38,0-.34.01-.47.05-.79.11-.15.83-1.1,1.14-1.44-.69.03-2.67.11-4.04.11l.02-1.59c1.51-.16,6.07-.46,7.92-.39-.93,1.52-2.52,3.18-2.96,3.63v.38c2.44-.05,2.75-.05,5.5-.05l.02,1.6Zm-8.8-9.53c0,.49-.38,1.11-1.18,1.11-.88,0-1.32-.74-1.32-1.34,0-.56.41-1.01,1.13-1.01.87,0,1.37.69,1.37,1.24Zm7,5.45c-.07-.8-.07-2-.05-2.45-3.31.2-7.76.36-9.35.36l-.02-1.67c3.29-.21,4.37-.28,7.28-.38l-.9-.69c.67-1.05,1.21-1.65,2.11-2.57l1.31,1.01c-.62.96-1.39,1.83-1.77,2.21.41,0,2.19-.05,2.55-.05.23-.02.41-.02.69-.02.02.57.05,1.18.05,1.96,0,1.03-.05,1.75-.08,2.26l-1.83.02Zm-3.88-5.5c0,.44-.36,1.11-1.16,1.11-.98,0-1.29-1.05-1.29-1.41,0-.54.44-1.06,1.06-1.06.95,0,1.39.9,1.39,1.36Z"/>
        <path class="cls-10" d="m230.05,1.62c.12,5.01.18,7.66.16,12.57,2.24-.13,5.96-.26,9.66-.26-.06-2.67-.15-5.97-.11-10.59-3,.15-6.03.28-9.02.36v-1.67c4.91-.39,8.82-.41,10.92-.43.08,3.26.12,5.65.12,8.74,0,1.67-.03,3.55-.05,5.22-4.48.2-8.97.29-13.44.34-.07-2.03-.15-4.88-.15-8.51,0-1.91.02-3.83.07-5.75l1.85-.03Zm5.25,9.92c.02.97.02,1.15-.03,2.06h-1.59c-.05-.85-.06-1.06-.05-1.34-.56.36-1.13.7-2.19,1.33l-.69-1.1c1.41-1.03,1.98-1.41,2.7-1.87-1.02.05-1.13.05-1.31.05-.02-.29-.05-.67-.05-1.36,0-.54.02-1.05.03-1.33l1.44-.02c.05.62.05.7.06,1.6,1.06-.05,1.31-.07,2.46-.1-.02-.13-.02-.21-.02-.54-1.14.07-1.26.08-2.14.12v-1c1.37-.13,2.08-.16,3.75-.18.03.82.05,1.65.03,2.47.08-.06.26-.24.64-.24.59,0,.9.49.9.87s-.31.82-.85.82c-.44,0-.95-.29-.95-.82,0-.2.06-.38.2-.54-.72.03-.8.05-1.49.08-.39.29-.96.69-1.46,1.03h.61Zm2.59-5.94c-.9.06-1.6.1-1.91.11v.57c.82-.03,1.52-.05,2.95-.08l.02,1.05c-3.65.26-4.97.29-7.82.38v-1.06c1.02-.08,1.21-.1,3.04-.21,0-.08-.02-.48-.02-.56-.46.02-1.44.07-2.34.1v-.95c1.25-.1,1.7-.13,2.33-.16,0-.21,0-.33.02-.79l1.75-.07c.04.46.04.56.05.79.05,0,1.13-.05,1.95-.05v.93Zm.26,7.97c-.83-.46-2.01-1.28-2.62-1.77l.75-1.01c.75.39,1.98,1.21,2.67,1.75l-.8,1.03Z"/>
      </g>
      <g>
        <path class="cls-10" d="m102.41,27.64c-1.14,4.43-3.52,10.66-4.32,12.57-.37.92-4.14,9.45-6.96,13.67l-3.77-1.87c.88-1.76,2.3-5.06,3.45-7.58,2.6-5.97,2.86-6.6,5.16-12.28,1.21-3,1.87-4.51,2.49-5.9l3.96,1.39Zm11.25,2.86c2.09,4.25,6.42,15.75,7.88,21.18l-3.85,1.43c-1.76-3.55-3.22-7.26-4.62-10.96-1.25-3.41-2.35-6.89-3.37-10.37l3.96-1.28Z"/>
        <path class="cls-10" d="m142.53,33.43c-.58,3.52-1.72,8.61-2.68,11.36-.55,1.61-2.78,7.04-4.65,10.51l-4.03-1.5c3.44-9.45,3.81-10.51,5.53-15.79.59-1.83,1.32-4.03,1.72-5.53l4.1.95Zm7.69-9.6c.18,4.84.26,9.67.26,14.51,0,1.72-.11,9.23-.11,10.77,4.65-1.65,11.21-3.59,12.16-3.85l1.28,3.85c-6.08,3.15-12.64,5.02-17.99,6.12-.04-.88-.07-1.57-.07-2.49-.08-3.55-.22-11.43-.22-14.66,0-.81.22-12.2.33-14.25h4.36Z"/>
        <path class="cls-10" d="m186.54,35.72c-2.04,5.06-4.14,8.9-5.84,11.98.92-.2,1.67-.33,2.76-.53l.76,3.22c-4.04,1.31-6.93,1.97-10.51,2.66l-.76-3.19c.92-.33,1.67-.56,3.09-.98,2.3-4.96,4.76-9.85,7.48-14.61l3.02,1.45Zm-1.81-9.19c-2,3.12-3.64,5.22-5.81,7.78.85.62,1.51,1.22,2.27,2.07l-2.23,2.69c-1.9-1.38-3.32-2.53-4.99-4.2,2.33-3.68,5.42-7.52,7.98-10.38l2.79,2.04Zm1.02,25.91c-.98-2.66-1.48-4.53-1.9-6.96l3.25-.82c.33.98,1.02,2.99,1.57,5.71,1.15-4.11,2.3-8.24,3.42-12.35-.26,0-1.74.07-4.14.1l.03-3.35c2.04-.23,2.17-.26,5.12-.49.82-2.92,1.8-6.57,2.62-9.68l3.35.59c-.62,3.84-.82,4.99-1.71,8.83,3.35-.13,4.4-.16,7.03-.13-.13,4.2-.72,11.16-3.18,19.67-3.15-.23-5.65-.75-6.83-1.02l.69-3.15c1.21.07,1.74.1,3.09.26.79-4.92,1.21-7.29,2.13-12.15-1.02.1-1.28.13-3.84.29-1.34,4.92-2.46,9.03-5.25,15.99l-3.25-.92c.2-.69.23-.79.33-1.08l-2.53.66Z"/>
        <path class="cls-10" d="m233.36,43.11c.7-.03,1.14-.1,2.36-.16.03-1.11.03-1.75.06-2.55h3.12c0,.32,0,.51.06,2.42.61,0,1.15-.03,2.77,0v2.87c-.57.06-.95.06-2.74.19,0,.64.03,1.69,0,1.91,1.69-.03,2.13-.03,2.9-.03v2.8c-1.69.16-2.35.19-2.93.22,0,.57-.03,1.78-.03,2.29,1.78-.03,1.97-.06,3.6-.1h.35v3.09c-4.71.29-9.43.48-14.14.45-.06-4.04-.1-5.48-.1-10.03,0-.83.06-4.58.06-5.35-1.08,1.53-1.66,2.33-2.1,2.93l-2.64-1.78c.13-.22.61-.99.89-1.5-.22.03-1.78.16-1.81.16.06,5.29.03,10.54-.12,15.8h-3.44c-.13-4.55-.13-4.68-.13-9.08-2.1,1.97-3.76,3.18-4.53,3.76l-1.91-2.55c.86-.86,3.02-3.09,6.46-5.73l.03-1.97c-.73.03-3.92.16-4.59.16v-3.06c2.39-.22,3.73-.32,4.65-.38.03-.67.13-3.72.16-4.33h3.25c0,.41,0,.8.1,4.14,1.46-.07,2.04-.07,2.68-.07v1.88c3.51-5.48,4.65-7.23,8.66-12.61l2.68,1.75c-1.53,2.42-3.09,4.93-5,7.77,3.79-.32,7.65-.48,11.5-.51v3.15c-3.35.22-6.66.38-11.21.58.06,2.61.09,5.22.09,7.8,0,1.02,0,3.31-.06,5.95.45-.03.73-.03,3.47-.19,0-.45-.03-1.02-.06-2.29h-2.42v-2.83c.51-.03,1.78-.13,2.39-.16v-1.94h-2.32v-2.87Zm-19.87-11.56c5.38-1.98,8.95-3.09,13.88-4.36l.92,2.96c-5.6,2.01-9.14,3.15-13.85,4.46l-.96-3.06Zm13.7,14.68c0,1.15-.83,1.94-1.91,1.94-1.02,0-2.17-.76-2.17-2.23s1.12-1.88,2.01-1.88c.73,0,2.07.7,2.07,2.16Zm14.14-13.44c0,.95-.92,2.36-2.45,2.36-1.24,0-2.26-.92-2.26-2.2,0-1.4,1.21-2.33,2.42-2.33,1.5,0,2.29,1.21,2.29,2.17Z"/>
        <path class="cls-10" d="m258.08,24.61c.24,10.68.38,16.33.35,26.8,4.78-.28,12.7-.56,20.59-.56-.14-5.69-.31-12.74-.25-22.58-6.38.31-12.84.59-19.23.77v-3.56c10.47-.84,18.81-.87,23.28-.91.17,6.94.24,12.04.24,18.63,0,3.56-.07,7.57-.1,11.13-9.56.42-19.12.63-28.65.73-.14-4.33-.31-10.4-.31-18.15,0-4.08.03-8.16.14-12.25l3.94-.07Zm11.2,21.15c.04,2.06.04,2.44-.07,4.4h-3.38c-.1-1.81-.14-2.27-.1-2.86-1.19.77-2.41,1.5-4.68,2.83l-1.46-2.34c3-2.2,4.22-3,5.76-3.98-2.16.11-2.41.11-2.79.11-.04-.63-.1-1.43-.1-2.9,0-1.15.04-2.23.07-2.83l3.07-.04c.1,1.33.1,1.5.14,3.42,2.27-.1,2.79-.14,5.23-.21-.04-.28-.04-.46-.04-1.15-2.44.14-2.69.17-4.57.24v-2.13c2.93-.28,4.43-.35,7.99-.38.07,1.75.11,3.53.07,5.27.17-.14.56-.52,1.36-.52,1.26,0,1.92,1.05,1.92,1.85s-.66,1.75-1.81,1.75c-.94,0-2.02-.63-2.02-1.75,0-.42.14-.8.42-1.15-1.54.07-1.71.1-3.18.17-.84.63-2.06,1.46-3.1,2.2h1.29Zm5.51-12.67c-1.92.14-3.42.21-4.08.25v1.22c1.75-.07,3.24-.1,6.28-.17l.04,2.23c-7.78.56-10.61.63-16.68.8v-2.27c2.16-.17,2.58-.21,6.49-.45,0-.17-.04-1.01-.04-1.19-.98.04-3.07.14-4.99.21v-2.03c2.65-.21,3.63-.28,4.96-.35,0-.45,0-.7.03-1.67l3.73-.14c.07.98.07,1.19.11,1.67.11,0,2.41-.1,4.15-.1v1.99Zm.56,17c-1.78-.98-4.29-2.72-5.58-3.77l1.61-2.16c1.61.84,4.22,2.58,5.69,3.73l-1.71,2.2Z"/>
      </g>
      <g>
        <path class="cls-9" d="m94.88,64.45c0-.32.14-.48.43-.48s.43.16.43.48v.91l2.89-.1c.29,0,.43.13.43.38s-.14.38-.43.38l-2.89.1v3.03c.13.55.22.98.29,1.3.03.22.05.5.05.82,0,1.09-.45,1.97-1.35,2.65-.9.67-2.2,1.01-3.9,1.01-.22-.03-.34-.14-.34-.34,0-.22.11-.35.34-.39,1.35,0,2.41-.26,3.18-.77.77-.51,1.16-1.16,1.16-1.93v-.72c-.61.93-1.38,1.4-2.31,1.4-.83,0-1.48-.24-1.93-.72-.45-.51-.67-1.07-.67-1.68,0-.64.24-1.23.72-1.78.38-.38.85-.63,1.4-.72.32-.06.64-.06.96,0,.61.13,1.12.42,1.54.87v-1.97c-2.25.1-4.38.16-6.4.19-.22,0-.34-.13-.34-.38s.11-.38.34-.38c2.12-.03,4.25-.1,6.4-.19v-.96Zm-3.42,4.09c-.29.38-.43.77-.43,1.16,0,.58.21,1.04.63,1.4.32.26.71.39,1.16.39.55,0,1.01-.18,1.4-.53.35-.38.53-.77.53-1.16,0-.45-.11-.83-.34-1.16-.39-.48-.9-.72-1.54-.72-.55,0-1.01.21-1.4.63Z"/>
        <path class="cls-9" d="m101.07,64.3c.29.03.42.19.38.48-.22,1.38-.38,2.5-.48,3.37-.06.74-.1,1.46-.1,2.17,0,1.25.06,2.47.19,3.66,0,.29-.13.45-.39.48-.26.03-.42-.11-.48-.43-.1-.93-.14-1.86-.14-2.79s.02-1.78.05-2.55c.03-.8.19-2.13.48-3.99.03-.29.19-.42.48-.38Zm6.21.19c0-.29.14-.43.43-.43s.43.14.43.43l.05,1.64,1.68-.05c.29,0,.45.13.48.38,0,.26-.14.38-.43.38l-1.73.05c.1,1.51.14,2.97.14,4.38.9.55,1.57,1.04,2.02,1.49.22.26.26.51.1.77-.22.19-.47.19-.72,0-.55-.58-1.03-1.01-1.44-1.3-.1.87-.39,1.48-.87,1.83-.55.39-1.25.58-2.12.58-.74,0-1.36-.18-1.88-.53-.58-.45-.87-1.01-.87-1.68,0-.61.27-1.12.82-1.54.55-.35,1.2-.53,1.97-.53.61,0,1.35.19,2.21.58-.03-1.44-.1-2.77-.19-3.99-2.09.06-3.66.1-4.72.1-.29,0-.43-.13-.43-.38s.14-.38.43-.38h1.16c1.35-.03,2.52-.06,3.51-.1l-.05-1.68Zm-3.8,7.17c-.19.26-.29.51-.29.77,0,.45.21.82.63,1.11.35.26.85.38,1.49.38.77,0,1.35-.18,1.73-.53.32-.32.48-.87.48-1.64-.87-.48-1.59-.72-2.17-.72-.87,0-1.49.21-1.88.63Zm5.25-7.99c.16-.06.29-.03.39.1.38.58.64,1.11.77,1.59.03.16-.03.27-.19.34-.19.03-.32-.03-.38-.19-.22-.58-.45-1.07-.67-1.49-.06-.13-.03-.24.1-.34Zm1.16-.24c.16-.06.29-.03.39.1.38.55.64,1.08.77,1.59.03.16-.03.27-.19.34-.19.03-.32-.03-.38-.19-.22-.58-.45-1.07-.67-1.49-.06-.13-.03-.24.1-.34Z"/>
        <path class="cls-9" d="m112.33,66.32c.1-.26.27-.37.53-.34.26.1.35.27.29.53-.22.87-.4,1.65-.53,2.36-.1.58-.14,1.08-.14,1.49.99-.74,1.81-1.23,2.45-1.49.77-.29,1.56-.43,2.36-.43,1.25,0,2.25.35,2.98,1.06.48.48.72,1.06.72,1.73,0,.87-.29,1.57-.87,2.12-.9.83-2.33,1.25-4.28,1.25-.93,0-1.75-.05-2.45-.14-.22-.03-.34-.16-.34-.39s.13-.34.38-.34c.77.06,1.52.1,2.26.1,1.64,0,2.89-.37,3.75-1.11.38-.38.58-.88.58-1.49,0-.55-.22-.99-.67-1.35-.51-.42-1.22-.63-2.12-.63-.77,0-1.48.13-2.12.38-.32.13-.72.34-1.2.63-.64.45-1.16.82-1.54,1.11-.38.22-.63.11-.72-.34v-.48c.1-1.25.27-2.45.53-3.61l.14-.63Zm6.45-1.25c.26.1.37.27.34.53-.06.29-.24.4-.53.34-1.54-.48-3.3-.82-5.29-1.01-.19-.06-.29-.18-.29-.34,0-.19.11-.3.34-.34,2.05.13,3.87.4,5.44.82Z"/>
        <path class="cls-9" d="m123.45,64.93c.03-.29.18-.43.43-.43.32,0,.47.16.43.48-.13,2.18-.21,3.95-.24,5.29v.67c0,.9.24,1.59.72,2.07.45.45,1.11.67,1.97.67,1.19,0,2.25-.45,3.18-1.35.64-.61,1.27-1.52,1.88-2.74.1-.26.29-.37.58-.34.29.1.37.32.24.67-.48.99-1.11,1.93-1.88,2.79-1.16,1.19-2.47,1.78-3.95,1.78-1.16,0-2.04-.31-2.65-.91-.61-.61-.91-1.44-.91-2.5v-1.59l.19-4.57Z"/>
        <path class="cls-9" d="m134.51,64.69c.32,0,.47.16.43.48-.1.71-.18,1.3-.24,1.78-.16,1.06-.24,1.97-.24,2.74,0,.55.03,1.06.1,1.54.1.96.34,1.62.72,1.97.19.19.39.21.58.05.51-.51.99-1.67,1.44-3.47.06-.19.21-.27.43-.24.22.06.3.22.24.48l-.05.24c-.35,1.48-.74,2.53-1.16,3.18-.42.64-.82.96-1.2.96-.45-.03-.87-.4-1.25-1.11-.42-.77-.63-1.99-.63-3.66,0-.71.03-1.51.1-2.41.06-.77.14-1.48.24-2.12.06-.32.22-.46.48-.43Zm6.4.24c.19-.1.37-.06.53.1.87,1.12,1.48,2.34,1.83,3.66.35,1.25.53,2.7.53,4.33,0,.35-.18.53-.53.53s-.53-.18-.53-.53c0-1.7-.14-3.11-.43-4.24-.32-1.16-.83-2.26-1.54-3.32-.1-.22-.05-.4.14-.53Z"/>
        <path class="cls-9" d="m147.15,63.96c.26.16.29.4.1.72-.29.51-.67,1.08-1.16,1.68,1.16,0,2.21-.03,3.18-.1-.29-.45-.59-.9-.91-1.35-.1-.16-.08-.29.05-.38.13-.1.27-.08.43.05.55.48,1.07,1.14,1.59,1.97.19.29.16.51-.1.67-.22.1-.42.02-.58-.24l-.14-.19c-1.73.22-3.3.32-4.72.29-.16-.03-.24-.14-.24-.34s.06-.3.19-.34c.19-.03.38-.05.58-.05.38-.61.75-1.28,1.11-2.02.16-.38.37-.51.63-.38Zm1.83,3.99c.19,0,.37.08.53.24.16.16.24.34.24.53v5.2c0,.29-.08.51-.24.67-.16.16-.38.24-.67.24-.51,0-.98-.05-1.4-.14-.22-.06-.32-.19-.29-.38.06-.22.22-.31.48-.24.32.1.69.13,1.11.1.22-.03.34-.14.34-.34v-1.49h-3.13v2.21c0,.26-.11.39-.34.39s-.34-.13-.34-.39v-5.82c0-.19.08-.37.24-.53.16-.16.34-.24.53-.24h2.94Zm-3.03.96v.91h3.13v-.91c0-.26-.13-.38-.38-.38h-2.36c-.26,0-.39.13-.39.38Zm0,2.84h3.13v-1.35h-3.13v1.35Zm5.2-7.51c0-.26.11-.38.34-.38s.34.13.34.38v1.49c1.12-.26,2.01-.58,2.65-.96.35-.19.59-.16.72.1.1.29-.03.5-.39.63-.74.35-1.73.66-2.98.91v1.4c0,.26.13.38.39.38h2.12c.51,0,.77-.26.77-.77v-.67c0-.26.11-.39.34-.39s.34.13.34.39v.96c0,.77-.39,1.16-1.16,1.16h-2.69c-.19,0-.37-.08-.53-.24-.16-.16-.24-.34-.24-.53v-3.85Zm0,5.49c0-.26.11-.38.34-.38s.34.13.34.38v1.64c1.03-.16,1.94-.46,2.74-.91.32-.19.55-.18.67.05.13.22.02.45-.34.67-.64.38-1.67.67-3.08.87v1.68c0,.26.13.39.39.39h2.07c.51,0,.77-.26.77-.77v-.63c0-.26.11-.38.34-.38s.34.13.34.38v.96c0,.74-.37,1.11-1.11,1.11h-2.69c-.19,0-.37-.08-.53-.24-.16-.16-.24-.34-.24-.53v-4.28Z"/>
        <path class="cls-9" d="m160.95,64.49c0-.32.14-.48.43-.48s.43.16.43.48v1.68h4.38c.19,0,.37.08.53.24.16.16.24.34.24.53v3.51c0,1.93-.27,3.16-.82,3.71-.35.35-.93.53-1.73.53-.9,0-1.88-.16-2.94-.48-.29-.1-.43-.24-.43-.43,0-.29.21-.39.63-.29,1.16.26,2.1.38,2.84.38.42,0,.77-.14,1.06-.43.35-.35.53-1.35.53-2.98v-3.22c0-.26-.13-.39-.38-.39h-3.95c-.22,3.24-1.64,5.78-4.24,7.6-.26.16-.47.16-.63,0-.16-.22-.1-.43.19-.63,2.37-1.83,3.64-4.16,3.8-6.98h-3.42c-.26,0-.38-.11-.38-.34s.13-.34.38-.34h3.47v-1.68Z"/>
        <path class="cls-9" d="m171.96,64.21c.1-.22.27-.32.53-.29.26.1.35.27.29.53-.06.26-.14.51-.24.77,1.67-.06,3.37-.18,5.1-.34.29-.03.45.1.48.39,0,.26-.14.4-.43.43-2.44.13-4.24.21-5.39.24-.26.74-.67,1.52-1.25,2.36.96-.51,1.62-.82,1.97-.91.32-.1.66-.14,1.01-.14.48,0,.9.14,1.25.43.35.32.56.8.63,1.44.8-.22,1.59-.45,2.36-.67.26-.03.43.08.53.34.06.29-.05.47-.34.53-.87.22-1.68.43-2.45.63v2.02c0,.32-.14.48-.43.48s-.43-.16-.43-.48v-1.73c-1.86.58-3.13,1.17-3.8,1.78-.35.32-.53.63-.53.91,0,.35.21.63.63.82.32.13,1.01.19,2.07.19.9,0,1.67-.03,2.31-.1.74-.06,1.41-.16,2.02-.29.26,0,.42.13.48.38,0,.26-.11.42-.34.48-.45.13-1.28.22-2.5.29-1.09.03-1.8.05-2.12.05-1.25,0-2.13-.18-2.65-.53-.45-.35-.67-.75-.67-1.2,0-.61.27-1.14.82-1.59.77-.67,2.18-1.36,4.24-2.07-.03-.9-.51-1.35-1.44-1.35-.48,0-1.06.16-1.73.48-.74.32-1.65,1.01-2.74,2.07-.22.16-.42.14-.58-.05-.13-.19-.11-.39.05-.58.64-.58,1.2-1.2,1.68-1.88.45-.67.8-1.36,1.06-2.07h-2.36c-.29,0-.43-.13-.43-.38s.14-.39.43-.39h2.6l.34-1.01Z"/>
        <path class="cls-9" d="m182.34,64.78c.42,0,.63.21.63.63v7.03c0,.42-.21.63-.63.63h-1.78c-.42,0-.63-.21-.63-.63v-7.03c0-.42.21-.63.63-.63h1.78Zm-1.73.91v6.45c0,.16.08.24.24.24h1.2c.16,0,.24-.08.24-.24v-6.45c0-.16-.08-.24-.24-.24h-1.2c-.16,0-.24.08-.24.24Zm8.62-1.73c.29.06.39.29.29.67-.19.61-.47,1.19-.82,1.73h1.3c.26,0,.39.11.39.34s-.13.34-.39.34h-2.79v2.5h3.18c.26,0,.38.11.38.34s-.13.34-.38.34h-3.18c.55,1.57,1.59,2.81,3.13,3.71.32.16.43.39.34.67-.16.22-.42.26-.77.1-1.22-.71-2.21-1.8-2.98-3.27-.58,1.32-2.01,2.47-4.28,3.47-.35.13-.58.08-.67-.14-.06-.22.05-.4.34-.53,2.5-1.12,3.88-2.45,4.14-3.99h-2.6c-.26,0-.39-.11-.39-.34s.13-.34.39-.34h2.7v-2.5h-2.5c-.26,0-.39-.11-.39-.34s.13-.34.39-.34h1.11c-.19-.61-.4-1.16-.63-1.64-.13-.26-.1-.45.1-.58.22-.1.42-.02.58.24.32.55.61,1.2.87,1.97h1.88c.32-.58.59-1.25.82-2.02.06-.29.22-.42.48-.38Z"/>
        <path class="cls-9" d="m195.12,64.4c.06-.29.24-.4.53-.34.26.06.37.21.34.43-.13.51-.27,1.03-.43,1.54.83-.1,1.36-.14,1.59-.14.74,0,1.33.22,1.78.67.55.58.82,1.59.82,3.03,0,1.28-.16,2.39-.48,3.32-.38,1.06-1.06,1.57-2.02,1.54-.38,0-.82-.1-1.3-.29-.48-.19-.9-.43-1.25-.72-.16-.13-.19-.27-.1-.43.06-.13.19-.16.38-.1.8.45,1.51.69,2.12.72.55,0,.98-.32,1.3-.96.32-.64.48-1.64.48-2.98,0-1.25-.14-2.07-.43-2.45-.32-.42-.75-.63-1.3-.63-.55.03-1.14.11-1.78.24-.61,2.02-1.11,3.45-1.49,4.28-.42,1.03-.87,1.97-1.35,2.84-.19.26-.42.32-.67.19-.22-.19-.27-.42-.14-.67.51-.8.99-1.72,1.44-2.74.45-1.03.9-2.28,1.35-3.75-.71.06-1.43.13-2.17.19-.32,0-.5-.13-.53-.38,0-.29.16-.45.48-.48.77-.03,1.57-.1,2.41-.19.16-.58.3-1.16.43-1.73Zm4.72.67c.16-.13.35-.13.58,0,.58.61,1.11,1.41,1.59,2.41.35.8.56,1.6.63,2.41,0,.32-.14.5-.43.53-.29.03-.47-.11-.53-.43-.06-.67-.26-1.44-.58-2.31-.29-.74-.71-1.43-1.25-2.07-.13-.19-.13-.37,0-.53Z"/>
        <path class="cls-9" d="m212.35,67.43v1.16c0,1.25-.14,2.05-.43,2.41-.29.35-.66.53-1.11.53-.67,0-1.41-.21-2.21-.63-.22-.16-.27-.35-.14-.58.1-.16.26-.19.48-.1.39.16.69.27.91.34.22.06.48.1.77.1.35,0,.58-.11.67-.34.13-.29.19-.75.19-1.4v-1.44l-5.34.38v3.37c0,.93.18,1.59.53,1.97.35.38.93.58,1.73.58,1.06,0,2.12-.05,3.18-.14.42-.03.88-.1,1.4-.19.32,0,.5.14.53.43,0,.26-.14.42-.43.48-.93.1-1.88.16-2.84.19h-1.83c-1.19,0-2.01-.29-2.45-.87-.45-.51-.67-1.4-.67-2.65v-3.13l-1.59.1c-.22,0-.35-.11-.38-.34,0-.26.13-.4.38-.43l1.59-.1v-1.93c0-.32.14-.48.43-.48s.43.16.43.48v1.88l5.34-.39v-2.12c0-.32.14-.48.43-.48s.43.16.43.48v2.07l1.64-.1c.32-.03.48.1.48.39,0,.22-.16.35-.48.38l-1.64.1Z"/>
        <path class="cls-9" d="m221.08,64.4c0-.32.14-.48.43-.48s.43.16.43.48v1.01l3.22-.14c.26,0,.38.14.38.43,0,.26-.13.39-.38.39l-3.22.1v1.78l3.22-.14c.26,0,.38.14.38.43,0,.26-.13.38-.38.38l-3.18.1v2.65c1.67.8,2.78,1.44,3.32,1.93.22.22.24.47.05.72-.22.16-.45.16-.67,0-.93-.71-1.83-1.3-2.7-1.78-.06.8-.37,1.44-.91,1.93-.48.42-1.25.63-2.31.63-.99,0-1.75-.24-2.26-.72-.42-.39-.64-.87-.67-1.44,0-.61.22-1.12.67-1.54.51-.42,1.2-.63,2.07-.63.71,0,1.56.19,2.55.58v-2.26l-2.65.05h-2.7c-.29,0-.43-.13-.43-.38s.14-.38.43-.38h2.65l2.65-.05v-1.78l-2.65.05h-2.65c-.29,0-.43-.13-.43-.39s.14-.38.43-.38h2.65l2.65-.05v-1.06Zm-3.9,7.12c-.38.29-.58.63-.58,1.01,0,.45.19.83.58,1.16.39.29.96.43,1.73.43.71,0,1.27-.19,1.68-.58.35-.35.53-.91.53-1.68-1.09-.48-1.97-.72-2.65-.72-.48,0-.91.13-1.3.39Z"/>
        <path class="cls-9" d="m233.49,64.45c0-.32.14-.48.43-.48s.43.16.43.48v.91l2.89-.1c.29,0,.43.13.43.38s-.14.38-.43.38l-2.89.1v3.03c.13.55.22.98.29,1.3.03.22.05.5.05.82,0,1.09-.45,1.97-1.35,2.65-.9.67-2.2,1.01-3.9,1.01-.22-.03-.34-.14-.34-.34,0-.22.11-.35.34-.39,1.35,0,2.41-.26,3.18-.77.77-.51,1.16-1.16,1.16-1.93v-.72c-.61.93-1.38,1.4-2.31,1.4-.83,0-1.48-.24-1.93-.72-.45-.51-.67-1.07-.67-1.68,0-.64.24-1.23.72-1.78.38-.38.85-.63,1.4-.72.32-.06.64-.06.96,0,.61.13,1.12.42,1.54.87v-1.97c-2.25.1-4.38.16-6.4.19-.22,0-.34-.13-.34-.38s.11-.38.34-.38c2.12-.03,4.25-.1,6.4-.19v-.96Zm-3.42,4.09c-.29.38-.43.77-.43,1.16,0,.58.21,1.04.63,1.4.32.26.71.39,1.16.39.55,0,1.01-.18,1.4-.53.35-.38.53-.77.53-1.16,0-.45-.11-.83-.34-1.16-.38-.48-.9-.72-1.54-.72-.55,0-1.01.21-1.4.63Z"/>
      </g>
      <line class="cls-1" x1="247.65" y1="69.05" x2="277.06" y2="69.05"/>
      <g>
        <path class="cls-5" d="m14.53,8.08c1.83-1.41,3.79-2.65,5.86-3.69,3.86-1.94,8.28-3.5,12.66-3.5,8.08,0,15.08.73,22.18,4.99,5.04,3.02,9.71,6.93,12.65,12.09,6.33,11.09,8.02,25.88-.15,36.53-5.22,6.81-12.65,11.82-21.62,10.5-12.93-1.9-19.31-18.98-9.08-27.89,3.19-2.78,6.89-4.2,11.11-4.21,4.2-.02,9.28,2.12,11.33,5.96v.74c0-1.3-6.24-3.07-7.27-3.23-2.7-.42-5.6-.02-8.1,1.09-5.79,2.57-8.25,9.83-5.37,15.5,1.23,2.41,3.79,4.53,6.31,5.43,6.11,2.18,12.35-1.87,15.8-6.72,1.04-1.46,2.02-3.13,2.71-4.79,2.98-7.17,2.95-15.51-.79-22.4-2.14-3.96-5.7-7.97-9.46-10.48-2.84-1.9-6.02-3.2-9.35-3.95-10.85-2.45-22.7-.05-30.65,8.18-1.92,1.99-3.64,4.54-4.57,7.16-2.22,6.24-2.95,14.96-1.28,21.38,2,7.73,7.43,15,14.55,18.74,2.1,1.1,4.54,1.45,6.45,2.93-3.2-6.39-8.05-12-8.05-19.54v-4.47c.13-1.98.62-3.6.74-5.58.55.07.34.9.37,1.49-.54,10.09,2.82,16.29,6.7,21.96,1.71,3.64,6.5,6.13,7.44,9.3-.02.12-8.49-.64-9.25-.71-10.51-1.07-19.64-9.53-23.31-19.11-1.08-2.83-1.92-5.85-2.5-8.82-.95-4.89-.74-9.9.52-14.71,2.09-7.98,6.9-15.14,13.41-20.16Z"/>
        <path class="cls-8" d="m38.26,26.19c-5.05-.09-8.88,1.05-12.65,2.23,1.62-7.46,3.95-16.12,13.4-14.51.71,1.07.41,3.71,0,4.84,2.76-.4,6.36-2.02,8.93-.37.45,1.04.41,2.57.37,4.09v.37c-.5,1.48-1.8,2.17-2.98,2.98h-.37c-2.11.24-5.2-.49-6.7.37Z"/>
        <path class="cls-4" d="m11.46,29.91c-2.56-4.72,1.75-8.21,6.33-8.19.83-4.26,4.33-9.66,9.3-6.33.99,4.99-3.32,7.48-2.98,13.02-4.28-1.2-8.14,2.9-12.65,1.49Z"/>
        <path class="cls-2" d="m23.37,37.73c.42-2.68.98-5.23,1.86-7.44,4.12-1.11,12.63-4.27,16-.37-.05,5.03-4.6,5.57-9.68,5.58h-.37v4.84c.6,4.63-7.3,6.41-7.81,1.49v-4.09Z"/>
        <path class="cls-7" d="m12.21,41.82c-1.52.1-1.84,1.39-3.72,1.12-2.34-8.88,6.69-12.59,14.89-13.4.43,1.72-.83,1.18-1.86,2.98-.88,1.54-1.69,4.42-2.23,6.7-1,4.22-.44,9.86-4.09,10.42-4.31.66-4.99-4.16-2.98-7.81Z"/>
        <path class="cls-3" d="m55,45.92c-.56-.78-.51-1.85-.12-2.68.67-1.4,1.76-.83,1.98.45.2,1.18-.27,3.28-1.86,2.23Z"/>
        <path class="cls-3" d="m42.72,50.01v-1.49c.3.07.37.37.74.37.56,6.51,12.42,6.21,12.65-.37.3.07.37.37.74.37.05,8.07-13.15,8.63-14.14,1.12Z"/>
        <path class="cls-6" d="m56.18,46.31c.02-.07.05-.13.08-.2.81-1.68,3.38-.97,2.63.96-.4,1.02-1.7,1.26-2.44.46-.3-.33-.39-.8-.27-1.22Z"/>
        <path class="cls-6" d="m42.6,45.32c.68.46,1.21,1.43.89,2.08-.48.99-1.87.67-2.55.13-1.08-.86-.56-2.25.82-2.45.28-.04.57.06.85.24Z"/>
        <path class="cls-3" d="m43.5,46.19c-.11-.05-.23-.12-.36-.22-.58-.48-.47-1.95-.28-2.58.23-.73,1-1.61,1.76-.88.6.57.4,1.8.26,2.53-.14.74-.68,1.44-1.39,1.16Z"/>
      </g>
    </g>
  </g>
</svg>